<?xml version="1.0" standalone="no"?>
<!DOCTYPE svg PUBLIC "-//W3C//DTD SVG 20010904//EN"
 "http://www.w3.org/TR/2001/REC-SVG-20010904/DTD/svg10.dtd">
<svg version="1.0" xmlns="http://www.w3.org/2000/svg"
 width="1920.000000pt" height="1080.000000pt" viewBox="0 0 1920.000000 1080.000000"
 preserveAspectRatio="xMidYMid meet">

<g transform="translate(0.000000,1080.000000) scale(0.100000,-0.100000)"
fill="#000000" stroke="none">
<path d="M14432 9796 c-33 -9 -77 -42 -184 -136 -77 -68 -147 -134 -155 -146
-22 -34 -92 -77 -117 -71 -11 3 -39 12 -61 21 -51 19 -146 20 -191 1 -20 -8
-52 -28 -73 -44 -47 -37 -198 -69 -384 -81 -116 -7 -134 -11 -201 -43 -89 -42
-111 -70 -102 -128 4 -22 16 -59 27 -81 12 -23 22 -65 24 -95 4 -64 25 -93 66
-93 26 0 30 -5 45 -57 8 -32 24 -86 34 -120 18 -62 18 -63 -3 -90 -12 -14 -24
-45 -27 -67 -6 -47 45 -24 -450 -199 -359 -127 -439 -156 -645 -229 -77 -28
-156 -54 -175 -60 -32 -9 -323 -130 -600 -250 -63 -28 -149 -63 -190 -80 -41
-16 -145 -60 -230 -98 -85 -37 -240 -105 -345 -150 -104 -45 -250 -109 -324
-141 -73 -33 -140 -59 -147 -59 -8 0 -116 -49 -241 -108 -126 -60 -261 -124
-302 -143 -41 -19 -104 -48 -140 -66 l-66 -31 -27 55 c-14 30 -33 62 -41 71
-8 9 -27 58 -42 107 -15 50 -40 131 -56 180 -15 50 -48 155 -72 235 -25 80
-70 228 -102 330 -31 102 -83 270 -115 373 -58 190 -74 221 -120 239 l-25 10
30 12 c29 13 205 132 275 187 50 39 101 47 139 20 27 -20 42 -21 238 -21 239
0 243 1 243 79 0 93 -97 200 -222 245 -127 45 -220 56 -568 66 -179 5 -352 12
-385 15 -33 3 -233 19 -443 35 l-384 30 -59 -26 c-67 -30 -143 -105 -153 -151
-12 -55 26 -134 100 -202 36 -34 71 -61 79 -61 8 0 32 -24 54 -54 27 -36 51
-58 73 -64 190 -59 240 -72 264 -71 16 2 57 -12 90 -29 54 -27 110 -44 216
-66 18 -4 35 -21 56 -58 16 -29 44 -66 60 -82 30 -28 33 -28 78 -17 25 7 48
11 49 9 2 -2 33 -100 70 -218 152 -490 199 -641 235 -755 82 -256 103 -331
105 -375 2 -25 14 -80 28 -123 l25 -77 -132 -81 c-72 -45 -153 -96 -181 -114
-119 -76 -264 -165 -270 -165 -4 0 -41 27 -83 61 -137 111 -386 270 -537 344
-400 197 -850 300 -1305 300 -397 0 -642 -43 -1060 -186 -96 -33 -220 -73
-275 -89 -55 -15 -145 -44 -200 -63 -188 -65 -542 -130 -850 -157 -155 -13
-518 -13 -665 0 -410 37 -858 179 -1132 357 -73 47 -131 123 -164 210 -10 27
-23 57 -30 68 -19 30 -34 129 -34 216 0 87 25 169 66 218 28 33 139 93 207
111 102 27 277 -7 375 -74 65 -45 119 -151 136 -264 12 -85 31 -120 60 -109
41 16 70 200 47 294 -22 86 -79 190 -142 257 -70 76 -197 145 -323 176 -101
25 -147 25 -232 -1 -230 -70 -410 -245 -453 -439 -32 -143 -17 -383 32 -515
31 -84 300 -358 448 -455 287 -189 613 -300 1010 -345 270 -30 778 -18 1071
26 241 35 669 131 853 189 596 190 742 228 1055 271 190 26 561 36 736 20 514
-48 943 -191 1254 -419 195 -143 381 -350 529 -587 24 -38 54 -86 67 -106 36
-58 159 -308 204 -415 87 -207 170 -481 201 -664 22 -125 17 -395 -9 -530 -12
-63 -26 -182 -31 -265 -7 -130 -14 -168 -49 -290 -95 -326 -255 -645 -440
-875 -121 -151 -356 -356 -508 -443 -27 -15 -89 -53 -139 -84 -109 -68 -358
-198 -475 -248 -229 -99 -484 -167 -690 -185 -52 -5 -176 -17 -275 -26 -226
-22 -876 -26 -1090 -6 -908 84 -1594 311 -2385 790 -41 25 -113 75 -160 110
-97 74 -254 152 -352 176 -161 39 -344 0 -454 -96 -62 -54 -151 -173 -191
-256 l-38 -77 1 -135 c1 -116 5 -146 27 -215 50 -152 132 -240 263 -281 198
-63 338 -50 481 47 138 92 203 198 203 331 0 65 -13 106 -35 115 -23 8 -65
-35 -65 -66 0 -84 -49 -145 -162 -202 -127 -64 -232 -69 -343 -14 -68 33 -101
70 -126 141 -35 97 -12 216 66 344 74 121 123 158 226 167 137 13 307 -55 494
-197 68 -51 179 -116 370 -215 889 -462 1861 -672 2851 -615 281 16 683 66
804 99 19 6 101 26 182 46 317 77 631 220 1028 468 477 299 813 746 995 1326
l42 134 34 -64 c40 -77 200 -241 275 -281 92 -50 195 -72 339 -72 111 -1 141
2 205 23 177 57 357 225 432 402 20 48 23 70 23 204 0 182 -10 225 -82 368
-30 59 -53 111 -51 115 3 9 208 274 363 471 179 227 340 442 340 452 0 6 -29
23 -65 38 -36 16 -85 37 -110 48 -25 11 -94 42 -155 68 l-109 47 -16 -23 c-18
-28 -649 -871 -658 -881 -6 -5 -110 10 -120 17 -5 4 -29 104 -51 215 -32 151
-68 303 -111 465 -22 83 -54 202 -71 265 -16 63 -44 167 -61 230 -16 63 -43
162 -58 220 -15 58 -40 150 -55 205 -22 85 -137 448 -151 480 -4 10 54 37 461
216 72 31 225 98 340 149 479 210 1196 487 2020 779 110 40 211 76 225 82 28
12 330 119 336 119 3 0 -26 -25 -63 -56 -214 -179 -525 -533 -830 -946 l-42
-57 34 -27 c37 -28 46 -54 20 -54 -9 0 -30 10 -46 23 l-31 22 -28 -36 c-37
-45 -150 -203 -147 -205 1 0 65 -46 142 -101 241 -171 273 -193 282 -192 4 0
45 46 90 103 l81 103 -31 31 c-26 26 -28 32 -14 38 10 3 27 -3 43 -15 l26 -20
91 113 c51 63 178 221 282 352 325 407 351 438 406 480 74 56 176 118 256 154
l66 30 29 -34 c20 -24 38 -36 61 -38 l32 -3 -3 -71 c-4 -83 12 -131 62 -184
19 -19 41 -57 49 -85 9 -27 37 -117 62 -200 26 -82 62 -198 81 -257 19 -59 34
-109 34 -111 0 -3 -64 -36 -142 -75 -155 -76 -365 -210 -493 -313 -114 -92
-337 -317 -433 -437 -332 -416 -526 -869 -598 -1402 -18 -136 -24 -429 -11
-570 8 -88 43 -328 52 -352 2 -7 11 -52 20 -101 23 -136 168 -500 249 -627
167 -261 213 -323 351 -474 326 -357 756 -612 1250 -741 293 -76 502 -100 817
-92 305 7 487 38 782 134 345 111 751 334 996 547 205 178 457 448 571 611
278 399 430 868 446 1370 17 547 -110 1041 -385 1502 -136 228 -220 336 -371
478 -500 471 -1034 727 -1640 786 -174 17 -593 5 -751 -21 -169 -28 -210 -34
-210 -27 0 3 -21 85 -47 184 -38 147 -46 195 -47 273 -2 111 -13 139 -86 210
-38 37 -67 53 -156 86 -115 43 -135 62 -95 90 31 22 33 11 -43 264 -41 137
-117 396 -156 532 -29 104 -52 148 -75 148 -8 0 -17 12 -21 28 -3 15 -12 49
-20 76 -8 27 -14 53 -14 57 0 4 20 10 44 13 39 6 59 1 153 -38 59 -26 114 -46
123 -46 8 0 39 22 69 48 l54 48 -14 38 -14 38 65 62 c36 34 90 75 120 93 l55
31 5 -46 c7 -61 22 -69 102 -53 48 9 75 10 112 1 28 -6 74 -8 103 -4 43 5 54
3 59 -10 8 -20 57 -33 154 -41 l75 -7 34 36 c19 20 45 36 57 36 37 0 196 -50
245 -77 28 -15 55 -23 66 -19 35 11 74 62 80 103 4 34 1 45 -27 76 -38 43 -79
70 -140 91 -55 18 -160 36 -217 36 -34 0 -53 8 -89 36 -26 19 -65 44 -88 56
-23 11 -42 21 -44 23 -1 1 9 22 23 47 46 83 66 156 55 200 -12 44 -60 102
-101 124 -32 16 -95 16 -157 0z m-2481 -3053 c27 -20 49 -41 49 -45 0 -13 -73
-106 -88 -112 -16 -7 -28 23 -16 39 44 59 46 65 34 81 -12 13 -17 9 -43 -31
-29 -44 -57 -59 -57 -30 0 16 60 135 68 135 3 0 27 -17 53 -37z m-2881 -308
c79 -199 192 -539 299 -900 74 -249 113 -411 156 -649 8 -43 17 -86 19 -95 3
-9 12 -65 21 -126 8 -60 17 -119 20 -131 4 -17 -5 -26 -48 -49 -28 -16 -82
-58 -119 -93 l-68 -65 0 119 c0 229 -70 548 -182 829 -46 116 -191 408 -254
512 -100 165 -187 287 -288 402 -31 36 -52 69 -48 73 22 22 448 266 454 260 3
-4 21 -43 38 -87z m5937 -45 c311 -19 544 -80 806 -211 338 -169 603 -407 863
-774 87 -122 185 -401 234 -665 36 -192 38 -544 5 -710 -3 -14 -10 -51 -15
-82 -30 -162 -114 -397 -215 -600 -112 -224 -176 -316 -315 -455 -410 -410
-846 -645 -1335 -719 -149 -22 -431 -22 -595 0 -282 38 -641 147 -796 241
-388 236 -622 485 -799 850 -102 209 -158 398 -192 640 -20 145 -22 535 -4
635 54 292 265 740 472 1000 207 261 558 530 846 649 105 43 115 43 125 1 5
-19 24 -91 43 -160 40 -148 148 -552 169 -630 7 -30 41 -156 74 -280 78 -287
115 -428 152 -565 16 -60 38 -146 50 -190 12 -44 27 -100 34 -124 18 -71 26
-72 193 -17 155 50 183 65 183 100 0 12 -69 276 -154 586 -84 311 -177 653
-206 760 -29 107 -81 301 -116 430 -35 129 -64 240 -64 247 0 15 116 34 265
43 66 4 125 8 130 8 6 1 78 -3 162 -8z"/>
<path d="M1367 7852 c-21 -23 -21 -46 -2 -197 17 -134 44 -259 82 -379 29 -94
123 -296 177 -378 97 -153 277 -333 438 -440 278 -185 655 -300 1111 -337 188
-16 282 -14 297 5 27 32 -6 41 -200 53 -679 42 -1165 232 -1465 573 -224 255
-349 592 -388 1046 -2 24 -11 50 -19 58 -13 13 -16 12 -31 -4z"/>
<path d="M11534 6572 l-41 -59 53 -17 c60 -19 114 -72 114 -111 0 -25 2 -25
80 -25 117 0 171 -30 182 -100 3 -23 5 -22 35 16 17 22 33 45 35 51 3 9 -375
287 -406 299 -7 3 -30 -22 -52 -54z"/>
<path d="M11381 6364 c-46 -63 -82 -117 -79 -119 2 -2 88 -71 192 -154 l188
-150 51 61 c138 163 155 189 151 231 -5 48 -24 72 -72 88 -33 11 -106 8 -159
-7 -20 -6 -23 -3 -23 25 0 51 -27 91 -73 111 -90 38 -83 41 -176 -86z"/>
<path d="M6057 6459 c-97 -56 -532 -203 -752 -253 -344 -78 -788 -111 -1160
-87 -159 10 -171 10 -188 -7 -17 -18 -17 -19 0 -34 28 -26 403 -42 653 -28
171 9 385 30 460 45 14 3 66 12 115 21 266 47 620 160 877 279 65 30 75 40 58
60 -14 17 -38 19 -63 4z"/>
<path d="M11235 6169 l-28 -42 27 -20 c14 -10 26 -24 26 -31 0 -9 -64 -102
-86 -125 -2 -3 -18 5 -34 17 -16 12 -31 22 -34 22 -3 0 -14 -13 -25 -29 l-21
-29 113 -143 c61 -80 130 -168 152 -197 21 -28 40 -52 42 -52 5 0 113 140 113
147 0 5 -57 56 -126 113 -69 58 -130 113 -136 123 -7 14 -2 28 27 63 20 24 40
44 45 44 4 0 48 -30 97 -67 48 -38 113 -86 143 -109 l55 -40 37 47 38 48 -185
148 c-102 81 -191 149 -199 151 -7 2 -25 -16 -41 -39z"/>
<path d="M11157 6063 c-23 -32 -25 -39 -13 -52 13 -12 18 -10 40 15 29 33 32
47 13 63 -11 8 -20 3 -40 -26z"/>
<path d="M11272 5960 c-6 -11 -12 -21 -12 -24 0 -2 56 -52 126 -111 118 -101
126 -106 140 -89 36 46 35 48 -29 94 -34 25 -93 69 -131 98 -38 28 -72 52 -75
52 -4 0 -12 -9 -19 -20z"/>
<path d="M11007 5863 c-33 -44 -47 -21 147 -237 142 -159 150 -166 167 -150
26 23 25 28 -18 83 -21 27 -89 114 -151 195 -62 80 -114 146 -115 146 -1 -1
-14 -17 -30 -37z"/>
<path d="M10876 5686 c-43 -59 -77 -109 -75 -110 2 -2 74 -34 159 -71 85 -37
183 -81 217 -96 34 -16 64 -29 67 -29 3 0 13 11 22 25 16 24 15 25 -108 162
-67 75 -141 157 -164 181 l-40 45 -78 -107z"/>
<path d="M10755 5523 c-9 -14 -13 -28 -8 -32 4 -4 104 -50 222 -101 l213 -93
19 24 c17 23 17 24 -4 36 -12 7 -71 33 -132 59 -60 26 -151 66 -202 90 l-92
42 -16 -25z"/>
<path d="M3530 5144 c-162 -26 -350 -108 -496 -215 -45 -33 -134 -128 -436
-463 -92 -101 -104 -128 -69 -160 18 -16 22 -15 82 27 94 66 327 194 464 255
161 72 350 133 520 168 124 26 161 29 325 29 218 0 300 -9 439 -46 208 -56
476 -184 601 -289 48 -39 241 -155 402 -239 304 -160 537 -244 778 -281 96
-15 336 -12 422 4 140 27 283 90 387 170 178 138 373 400 414 559 14 51 13 57
-2 71 -16 14 -20 13 -48 -17 -16 -17 -42 -54 -58 -82 -51 -92 -157 -237 -224
-308 -161 -170 -376 -260 -626 -261 -107 0 -136 4 -265 37 -80 21 -199 56
-265 78 -149 50 -421 183 -500 245 -68 52 -309 226 -370 265 -112 72 -159 102
-259 159 -244 140 -490 237 -711 280 -148 28 -377 35 -505 14z"/>
<path d="M2576 3139 c-265 -26 -535 -149 -706 -323 -51 -52 -53 -57 -38 -73
16 -15 21 -12 77 39 145 135 332 228 551 275 106 22 452 25 570 5 452 -80 927
-267 1491 -588 171 -97 184 -103 201 -87 25 22 16 30 -105 101 -681 398 -1247
612 -1720 651 -143 12 -192 12 -321 0z"/>
<path d="M7710 2779 c-73 -66 -258 -201 -350 -256 -499 -298 -1007 -401 -1610
-327 -69 9 -159 22 -200 30 -116 23 -377 90 -457 118 -71 24 -72 24 -89 5 -15
-17 -16 -21 -3 -33 34 -33 372 -124 628 -168 180 -31 195 -32 471 -32 225 -1
304 3 375 16 50 10 116 22 147 27 233 40 572 183 813 343 112 75 156 108 290
218 72 60 75 64 59 82 -10 10 -20 18 -23 18 -3 -1 -26 -19 -51 -41z"/>
</g>
</svg>
