<?xml version="1.0"?>
<!DOCTYPE svg PUBLIC '-//W3C//DTD SVG 1.1//EN' 'http://www.w3.org/Graphics/SVG/1.1/DTD/svg11.dtd'>
<svg enable-background="new 0 0 48 48" height="48px" version="1.1" viewBox="0 0 48 48" width="48px" xml:space="preserve" xmlns="http://www.w3.org/2000/svg" xmlns:xlink="http://www.w3.org/1999/xlink">
  <g id="Layer_4">
    <g>
      <circle cx="23.938" cy="24.073" fill="#241F20" r="2.405" />
      <path d="M23.938,9.643c-7.968,0-14.429,6.458-14.429,14.429c0,7.967,6.461,14.43,14.429,14.43    c7.969,0,14.43-6.463,14.43-14.43C38.368,16.102,31.907,9.643,23.938,9.643z M25.729,13.729c0.824-1.042,2.757-0.883,4.321,0.353    c1.563,1.235,2.165,3.081,1.338,4.124c-0.824,1.042-2.757,0.885-4.321-0.353C25.503,16.618,24.905,14.772,25.729,13.729z     M17.553,14.002c1.631-1.146,3.571-1.195,4.334-0.108c0.763,1.089,0.061,2.898-1.57,4.044c-1.631,1.144-3.571,1.191-4.334,0.104    C15.217,16.952,15.922,15.146,17.553,14.002z M14.269,27.643c-1.329,0-2.405-1.616-2.405-3.608c0-1.991,1.076-3.607,2.405-3.607    s2.405,1.616,2.405,3.607C16.673,26.026,15.598,27.643,14.269,27.643z M21.926,34.843c-0.824,1.043-2.757,0.883-4.321-0.353    c-1.564-1.235-2.165-3.081-1.338-4.124c0.824-1.042,2.757-0.888,4.321,0.353C22.151,31.954,22.749,33.8,21.926,34.843z     M19.129,24.072c0-2.658,2.153-4.81,4.81-4.81s4.81,2.151,4.81,4.81c0,2.654-2.153,4.81-4.81,4.81S19.129,26.727,19.129,24.072z     M30.102,34.57c-1.63,1.146-3.57,1.193-4.335,0.108c-0.763-1.09-0.061-2.898,1.57-4.045c1.632-1.146,3.572-1.192,4.333-0.103    C32.436,31.621,31.731,33.425,30.102,34.57z M35.761,24.035c0,1.992-1.075,3.608-2.404,3.608s-2.405-1.616-2.405-3.608    c0-1.994,1.076-3.607,2.405-3.607S35.761,22.041,35.761,24.035z" fill="#241F20" />
      <path d="M45.583,24.321c0-1.273,0.995-2.287,2.245-2.372c-0.146-1.597-0.395-3.166-0.836-4.659    c-0.261,0.099-0.536,0.169-0.832,0.169c-1.329,0-2.404-1.076-2.404-2.405c0-0.982,0.589-1.813,1.428-2.189    c-0.724-1.357-1.558-2.649-2.516-3.837c-0.423,0.371-0.96,0.615-1.568,0.615c-1.329,0-2.405-1.076-2.405-2.405    c0-0.606,0.244-1.146,0.613-1.569c-1.155-0.963-2.367-1.86-3.692-2.598c-0.395,0.789-1.19,1.343-2.132,1.343    c-1.33,0-2.405-1.075-2.405-2.405c0-0.296,0.07-0.573,0.169-0.833c-1.58-0.505-3.225-0.867-4.929-1.036    c-0.065,1.273-1.093,2.287-2.38,2.287s-2.314-1.014-2.38-2.287c-1.629,0.162-3.203,0.502-4.715,0.975    c0.111,0.279,0.181,0.58,0.181,0.897c0,1.329-1.076,2.402-2.405,2.402c-0.975,0-1.804-0.582-2.182-1.414    c-1.36,0.751-2.649,1.616-3.835,2.607c0.4,0.427,0.657,0.996,0.657,1.63c0,1.329-1.076,2.402-2.405,2.402    c-0.614,0-1.159-0.247-1.584-0.625c-0.976,1.212-1.871,2.492-2.601,3.882c0.811,0.385,1.38,1.198,1.38,2.156    c0,1.329-1.076,2.402-2.405,2.402c-0.275,0-0.528-0.073-0.774-0.157c-0.404,1.383-0.694,2.813-0.845,4.286    c1.164,0.167,2.071,1.127,2.071,2.337c0,1.221-0.919,2.184-2.096,2.341c0.179,1.891,0.575,3.713,1.164,5.451    c0.287-0.122,0.6-0.188,0.93-0.188c1.329,0,2.405,1.076,2.405,2.405c0,0.953-0.563,1.757-1.366,2.142    c0.673,1.155,1.438,2.25,2.285,3.274c0.412-0.329,0.915-0.56,1.485-0.56c1.33,0,2.405,1.076,2.405,2.405    c0,0.559-0.22,1.043-0.536,1.451c1.113,0.906,2.278,1.757,3.543,2.457c0.402-0.766,1.179-1.302,2.103-1.302    c1.329,0,2.405,1.076,2.405,2.405c0,0.272-0.072,0.526-0.156,0.775c1.569,0.497,3.201,0.854,4.891,1.019    c0.065-1.268,1.093-2.282,2.38-2.282c1.27,0,2.28,0.991,2.371,2.235c1.41-0.141,2.798-0.361,4.127-0.737    c-0.062-0.211-0.134-0.423-0.134-0.657c0-1.329,1.076-2.405,2.405-2.405c0.938,0,1.727,0.55,2.123,1.329    c1.449-0.742,2.823-1.606,4.084-2.616c-0.324-0.408-0.547-0.906-0.547-1.47c0-1.329,1.075-2.405,2.404-2.405    c0.568,0,1.066,0.226,1.478,0.555c1.015-1.203,1.952-2.471,2.718-3.856c-0.86-0.362-1.464-1.212-1.464-2.208    c0-1.329,1.076-2.404,2.405-2.404c0.343,0,0.665,0.075,0.961,0.201c0.462-1.47,0.796-3.001,0.967-4.584    C46.583,26.613,45.583,25.599,45.583,24.321z M23.938,42.109c-9.962,0-18.037-8.074-18.037-18.037    c0-9.962,8.074-18.037,18.037-18.037c9.963,0,18.037,8.074,18.037,18.037C41.976,34.035,33.901,42.109,23.938,42.109z" fill="#241F20" />
    </g>
  </g>
</svg>